<?xml version="1.0" encoding="iso-8859-1"?>
<!-- Uploaded to: SVG Repo, www.svgrepo.com, Generator: SVG Repo Mixer Tools -->
<!DOCTYPE svg PUBLIC "-//W3C//DTD SVG 1.1//EN" "http://www.w3.org/Graphics/SVG/1.1/DTD/svg11.dtd">
<svg fill="#000000" height="800px" width="800px" version="1.1" id="Capa_1" xmlns="http://www.w3.org/2000/svg" xmlns:xlink="http://www.w3.org/1999/xlink" 
	 viewBox="0 0 442 442" xml:space="preserve">
<g>
	<path d="M322.921,330.138c-1.776,1.776-3.742,2.806-6.248,3.257c-9.129-0.293-17.159-8.579-26.428-18.169
		c-15.226-15.752-35.794-37.027-69.245-18.398c-33.454-18.629-54.02,2.648-69.245,18.398c-9.268,9.588-17.297,17.873-26.425,18.168
		c-2.507-0.45-4.474-1.479-6.251-3.256c-3.905-3.903-10.237-3.903-14.142,0c-3.905,3.905-3.906,10.237-0.001,14.143
		c5.761,5.761,12.152,8.31,18.845,9.086c0.017,0.002,0.033,0.004,0.05,0.005c8.406,0.963,17.29-0.867,26.009-2.667
		c8.321-1.719,16.926-3.495,26.28-3.495c6.98,0,11.841,3.007,17.995,6.813c7.114,4.4,15.177,9.388,26.884,9.388
		c11.707,0,19.77-4.987,26.885-9.388c6.153-3.806,11.014-6.813,17.994-6.813c9.354,0,17.959,1.776,26.28,3.495
		c8.722,1.801,17.609,3.632,26.018,2.667c0.01-0.001,0.02-0.002,0.03-0.003c6.698-0.774,13.092-3.323,18.857-9.088
		c3.905-3.905,3.905-10.237,0-14.143C333.157,326.233,326.827,326.233,322.921,330.138z M237.363,337.013
		c-5.777,3.573-10.342,6.397-16.363,6.397c-6.022,0-10.585-2.823-16.363-6.397c-7.062-4.368-15.849-9.804-28.516-9.804
		c-2.917,0-5.744,0.139-8.488,0.372c16.49-16.934,26.623-24.746,47.851-10.71c3.345,2.213,7.688,2.213,11.031,0
		c21.229-14.035,31.361-6.225,47.851,10.71c-2.744-0.233-5.57-0.372-8.488-0.372C253.213,327.209,244.425,332.645,237.363,337.013z"
		/>
	<path d="M344.512,38.048c-53.755,0-97.487,43.732-97.487,97.487c0,53.755,43.732,97.488,97.487,97.488S442,189.29,442,135.535
		C442,81.78,398.267,38.048,344.512,38.048z M344.512,213.023c-42.727,0-77.487-34.761-77.487-77.488
		c0-42.727,34.761-77.487,77.487-77.487c42.728,0,77.488,34.761,77.488,77.487C422,178.263,387.239,213.023,344.512,213.023z"/>
	<path d="M344.512,158.472c-5.522,0-10,4.478-10,10v7.205c0,5.522,4.478,10,10,10c5.523,0,10-4.478,10-10v-7.205
		C354.512,162.949,350.034,158.472,344.512,158.472z"/>
	<path d="M385.778,138.429l-6.852-2.226c-5.256-1.711-10.895,1.169-12.6,6.422c-1.706,5.253,1.169,10.894,6.422,12.6l6.853,2.226
		c1.026,0.334,2.067,0.492,3.091,0.492c4.216,0,8.137-2.688,9.509-6.914C393.906,145.775,391.031,140.135,385.778,138.429z"/>
	<path d="M371.963,114.767l4.234-5.829c3.246-4.468,2.255-10.722-2.214-13.968c-4.467-3.244-10.721-2.255-13.968,2.214l-4.234,5.829
		c-3.246,4.468-2.255,10.722,2.214,13.968c1.774,1.289,3.831,1.91,5.869,1.91C366.956,118.891,370.006,117.46,371.963,114.767z"/>
	<path d="M333.243,103.013l-4.234-5.829c-3.247-4.471-9.501-5.459-13.968-2.214c-4.469,3.246-5.46,9.5-2.214,13.968l4.234,5.829
		c1.957,2.694,5.006,4.124,8.099,4.124c2.038,0,4.095-0.621,5.869-1.91C335.498,113.734,336.489,107.48,333.243,103.013z"/>
	<path d="M310.099,136.203l-6.853,2.226c-5.253,1.706-8.128,7.347-6.422,12.6c1.372,4.227,5.293,6.914,9.509,6.914
		c1.023,0,2.064-0.158,3.091-0.492l6.853-2.226c5.253-1.706,8.128-7.347,6.422-12.6
		C320.993,137.372,315.352,134.492,310.099,136.203z"/>
	<path d="M194.976,135.535c0-53.755-43.733-97.487-97.488-97.487S0,81.78,0,135.535c0,53.755,43.733,97.488,97.488,97.488
		S194.976,189.29,194.976,135.535z M97.488,213.023C54.761,213.023,20,178.263,20,135.535c0-42.727,34.761-77.487,77.488-77.487
		c42.727,0,77.488,34.761,77.488,77.487C174.976,178.263,140.215,213.023,97.488,213.023z"/>
	<path d="M97.488,158.472c-5.523,0-10,4.478-10,10v7.205c0,5.522,4.477,10,10,10c5.523,0,10-4.478,10-10v-7.205
		C107.488,162.949,103.011,158.472,97.488,158.472z"/>
	<path d="M138.754,138.429l-6.852-2.226c-5.255-1.708-10.894,1.169-12.6,6.422c-1.706,5.252,1.169,10.894,6.421,12.6l6.852,2.226
		c1.027,0.334,2.067,0.492,3.091,0.492c4.215,0,8.136-2.688,9.509-6.914C146.881,145.776,144.006,140.135,138.754,138.429z"/>
	<path d="M124.938,114.768l4.235-5.829c3.246-4.469,2.255-10.722-2.213-13.968c-4.467-3.246-10.721-2.254-13.968,2.212l-4.235,5.829
		c-3.246,4.469-2.255,10.722,2.213,13.968c1.775,1.29,3.831,1.911,5.869,1.911C119.932,118.891,122.981,117.46,124.938,114.768z"/>
	<path d="M86.218,103.012l-4.235-5.829c-3.245-4.468-9.5-5.459-13.968-2.212c-4.468,3.246-5.459,9.499-2.213,13.968l4.235,5.829
		c1.957,2.693,5.006,4.123,8.099,4.123c2.038,0,4.095-0.621,5.869-1.911C88.474,113.733,89.464,107.48,86.218,103.012z"/>
	<path d="M63.074,136.203l-6.852,2.226c-5.252,1.706-8.127,7.348-6.421,12.6c1.373,4.227,5.293,6.914,9.509,6.914
		c1.023,0,2.065-0.159,3.091-0.492l6.852-2.226c5.252-1.706,8.127-7.348,6.421-12.6C73.968,137.372,68.326,134.497,63.074,136.203z"
		/>
	<path d="M179.817,230.229c-2.114,5.103,0.31,10.952,5.412,13.065l12.424,5.146c1.252,0.519,2.548,0.765,3.823,0.765
		c3.924,0,7.647-2.325,9.243-6.176c2.114-5.102-0.309-10.952-5.412-13.065l-12.424-5.146
		C187.78,222.706,181.931,225.126,179.817,230.229z"/>
	<path d="M240.523,249.205c1.275,0,2.571-0.246,3.823-0.764l12.425-5.146c5.102-2.114,7.525-7.964,5.412-13.066
		c-2.114-5.102-7.963-7.524-13.066-5.412l-12.425,5.146c-5.103,2.114-7.525,7.964-5.412,13.066
		C232.876,246.88,236.6,249.205,240.523,249.205z"/>
	<path d="M284.511,355.492c-4.533-3.151-10.767-2.034-13.92,2.5c-11.306,16.255-29.845,25.96-49.591,25.96
		s-38.285-9.705-49.591-25.96c-3.154-4.534-9.384-5.652-13.919-2.5c-4.534,3.154-5.653,9.386-2.5,13.92
		c15.043,21.628,39.72,34.54,66.01,34.54c26.291,0,50.967-12.912,66.011-34.54C290.164,364.878,289.045,358.647,284.511,355.492z"/>
</g>
</svg>