<svg width="122" height="38" viewBox="0 0 122 38" fill="none" xmlns="http://www.w3.org/2000/svg">
<path d="M102.558 0.848633H18.9026C8.64177 0.848633 0.32373 9.16667 0.32373 19.4275C0.32373 29.6883 8.64177 38.0064 18.9026 38.0064H102.558C112.819 38.0064 121.137 29.6883 121.137 19.4275C121.137 9.16667 112.819 0.848633 102.558 0.848633Z" fill="#F04930"/>
<path d="M57.2843 8.12012H34.8838C34.7542 8.12012 34.6299 8.17162 34.5382 8.26329C34.4465 8.35496 34.395 8.47929 34.395 8.60893V14.107C34.3982 14.2346 34.4511 14.3558 34.5424 14.4449C34.6337 14.5339 34.7563 14.5838 34.8838 14.5837H42.6887V30.2459C42.6881 30.3106 42.7003 30.3748 42.7246 30.4348C42.7489 30.4948 42.7848 30.5494 42.8301 30.5956C42.8755 30.6417 42.9296 30.6785 42.9892 30.7037C43.0488 30.729 43.1127 30.7423 43.1775 30.7428H49.0957C49.2257 30.7417 49.35 30.6893 49.4416 30.597C49.5332 30.5047 49.5845 30.3799 49.5845 30.2499V14.5837H57.2843C57.4143 14.5837 57.5391 14.5324 57.6314 14.4408C57.7237 14.3493 57.7761 14.2249 57.7772 14.0949V8.60489C57.775 8.47558 57.7222 8.35229 57.63 8.2616C57.5378 8.17091 57.4136 8.1201 57.2843 8.12012Z" fill="white"/>
<path d="M102.207 30.7424H110.015C110.08 30.7422 110.143 30.7235 110.197 30.6884C110.251 30.6533 110.294 30.6033 110.321 30.5445C110.347 30.4856 110.356 30.4204 110.346 30.3566C110.337 30.2928 110.309 30.2332 110.266 30.1849L100.51 19.1684L110.048 8.73374C110.094 8.68265 110.125 8.61952 110.138 8.55156C110.15 8.48361 110.143 8.41358 110.117 8.3495C110.091 8.28543 110.048 8.22988 109.992 8.18924C109.936 8.1486 109.87 8.12449 109.801 8.11969H102.223C102.153 8.11946 102.085 8.1333 102.021 8.16038C101.957 8.18746 101.899 8.22722 101.851 8.27724L92.6202 17.8353V8.6287C92.6197 8.56098 92.6057 8.49404 92.5792 8.43173C92.5527 8.36942 92.5141 8.31297 92.4656 8.26566C92.4172 8.21834 92.3599 8.18108 92.2969 8.15602C92.234 8.13097 92.1668 8.11862 92.099 8.11969H86.1081C85.972 8.11969 85.8415 8.17375 85.7453 8.26996C85.6491 8.36618 85.595 8.49667 85.595 8.63274V30.2212C85.594 30.2893 85.6064 30.3569 85.6317 30.42C85.657 30.4832 85.6947 30.5407 85.7424 30.5892C85.7902 30.6377 85.8471 30.6763 85.9099 30.7025C85.9726 30.7288 86.04 30.7424 86.1081 30.7424H92.0869C92.2241 30.7424 92.3556 30.6879 92.4526 30.5909C92.5495 30.4939 92.604 30.3624 92.604 30.2253V27.3974C92.604 25.624 92.604 20.9338 92.604 20.9338H93.3433L101.803 30.5848C101.854 30.6392 101.917 30.6815 101.987 30.7087C102.057 30.736 102.132 30.7475 102.207 30.7424Z" fill="white"/>
<path d="M20.6962 7.75244C13.8286 7.75244 8.21338 13.0041 8.21338 19.4274C8.21338 25.8506 13.8125 31.1023 20.6962 31.1023C27.58 31.1023 33.1791 25.8506 33.1791 19.4274C33.1791 13.0041 27.58 7.75244 20.6962 7.75244ZM26.6064 19.4314C26.6064 22.4733 23.9563 24.9537 20.6962 24.9537C17.4362 24.9537 14.7861 22.4693 14.7861 19.4314C14.7861 16.3935 17.4362 13.909 20.6962 13.909C23.9563 13.909 26.6064 16.3814 26.6064 19.4314Z" fill="white"/>
<path d="M74.9582 8.12012H64.4872C64.3531 8.12002 64.2225 8.16211 64.1137 8.24042C64.005 8.31873 63.9236 8.42928 63.8812 8.55642L56.7753 29.8944C56.7434 29.9907 56.7347 30.0931 56.75 30.1933C56.7653 30.2935 56.8041 30.3886 56.8632 30.471C56.9223 30.5533 57 30.6205 57.0901 30.667C57.1801 30.7136 57.2799 30.7382 57.3812 30.7387H63.1783C63.3145 30.7389 63.4472 30.6954 63.557 30.6147C63.6667 30.5341 63.7478 30.4204 63.7883 30.2903L64.9396 26.6142L64.98 26.4889C66.5208 26.9054 68.1105 27.1132 69.7065 27.107C71.3133 27.1138 72.9133 26.899 74.4613 26.4687L74.5058 26.6061L75.6571 30.2823C75.6962 30.4149 75.7771 30.5314 75.8878 30.6143C75.9984 30.6973 76.1329 30.7424 76.2712 30.7428H82.0359C82.1371 30.7429 82.2368 30.7189 82.3269 30.6728C82.417 30.6268 82.4949 30.5599 82.5541 30.4779C82.6133 30.3958 82.6521 30.3008 82.6674 30.2008C82.6826 30.1007 82.6739 29.9985 82.6419 29.9025L75.5723 8.55642C75.5284 8.42864 75.4455 8.31783 75.3354 8.23958C75.2252 8.16132 75.0933 8.11954 74.9582 8.12012ZM69.7065 20.9666C68.7359 20.9808 67.77 20.8292 66.8504 20.5182V20.4737L68.838 14.5837H70.5791L72.5748 20.4576V20.4939C71.6526 20.8133 70.6824 20.9718 69.7065 20.9625V20.9666Z" fill="white"/>
</svg>